<svg id="Layer_1" enable-background="new 0 0 128 128" height="512" viewBox="0 0 128 128" width="512" xmlns="http://www.w3.org/2000/svg"><path d="m94.034 76.967c-.042-.052-.084-.099-.134-.141-4.046-4.255-9.318-7.328-15.248-8.647-.006-.001-.011-.006-.017-.007-.026-.006-.052-.009-.078-.015-.776-.17-1.563-.308-2.361-.417 6.395-3.075 11.193-8.95 12.812-16.024.306.09.617.149.93.149 2.45 0 4.369-2.528 4.369-5.757 0-1.48-.407-2.81-1.08-3.819 1.497-.622 2.583-2.321 2.583-4.339 0-1.391-.515-2.681-1.366-3.542.62-1.044.954-2.247.954-3.473 0-2.617-1.469-4.941-3.747-6.077.412-1.123.621-2.294.621-3.494 0-5.643-4.59-10.233-10.232-10.233-1.684 0-3.325.412-4.8 1.197-1.554-2.116-5.328-6.127-11.595-6.127-3.719 0-6.19 1.486-8.58 2.924-2.382 1.432-4.63 2.785-8.167 2.785-3.697 0-6.95-5.183-6.982-5.235-.196-.315-.535-.49-.923-.471-.371.027-.697.258-.846.599-.17.394-3.867 9.148 1.08 16.319-2.859.802-4.962 3.432-4.962 6.544 0 1.64.6 3.212 1.653 4.435-1.049.824-1.73 2.249-1.73 3.849 0 2.021 1.088 3.717 2.589 4.333-.676 1.011-1.085 2.342-1.085 3.826 0 3.229 1.919 5.757 4.369 5.757.313 0 .623-.059.93-.149 1.619 7.073 6.417 12.948 12.812 16.023-.799.109-1.587.248-2.365.418-.024.005-.048.008-.072.014-.006.001-.01.005-.016.007-13.448 2.99-23.536 15.005-23.536 29.34v20.173c0 1.654 1.346 3 3 3h4.331c1.028 2.273 3.087 4.044 5.713 4.582l1.593.325c.652.134 1.308.199 1.958.199 1.875 0 3.709-.547 5.31-1.604.432-.285.828-.609 1.203-.951h7.786c1.292 0 2.403-.922 2.641-2.191l.068-.36h35.77c1.654 0 3-1.346 3-3v-20.173c-.001-7.944-3.103-15.172-8.153-20.552z" fill="#e6e7e8"/><path d="m70.801 64.587c-.528 4.395-4.263 7.803-8.801 7.803s-8.273-3.409-8.802-7.805c-14.796 1.35-26.388 13.786-26.388 28.934v20.17c0 1.105.895 2 2 2h66.38c1.105 0 2-.895 2-2v-20.16c0-15.151-11.591-27.588-26.389-28.942z" fill="#fff"/><path d="m36.76 74.649c-.64-.4-1.31-.76-2.02-1.06-4.92 5.2-7.93 12.21-7.93 19.93v20.17c0 1.105.895 2 2 2h14.98v-25.4-3c0-5.2-2.71-9.95-7.03-12.64z" fill="#d4fbff"/><path d="m89.27 73.589c-.7.3-1.38.65-2.01 1.05-4.34 2.68-7.05 7.45-7.05 12.65v3 25.4h14.98c1.105 0 2-.895 2-2v-20.17c0-7.72-3-14.73-7.92-19.93z" fill="#d4fbff"/><path d="m69.911 67.52c-1.464 2.887-4.453 4.87-7.911 4.87s-6.447-1.983-7.911-4.871c-6.626.403-12.648 3.017-17.329 7.129 4.32 2.69 7.03 7.44 7.03 12.64v28.4h36.42v-28.4c0-5.2 2.71-9.97 7.05-12.65-4.691-4.102-10.722-6.716-17.349-7.118z" fill="#fa759e"/><path d="m43.415 84.006c.241 1.064.375 2.163.375 3.285v2.074h36.421v-2.074c0-1.122.133-2.221.375-3.285z" fill="#6dc9f7"/><path d="m86.9 74.879c-2.07 1.35-3.75 3.21-4.91 5.36h-39.98c-1.16-2.15-2.84-4.01-4.91-5.36z" fill="#6dc9f7"/><path d="m43.789 94.423h36.421v5.359h-36.421z" fill="#6dc9f7"/><path d="m43.789 104.84h36.421v5.359h-36.421z" fill="#6dc9f7"/><path d="m62 76.26c6.434 0 11.727-4.862 12.419-11.111-1.181-.261-2.387-.451-3.617-.564-.528 4.396-4.264 7.806-8.802 7.806s-8.274-3.41-8.802-7.806c-1.23.112-2.436.303-3.617.564.692 6.249 5.985 11.111 12.419 11.111z" fill="#d4fbff"/><path d="m80.152 23.126c-1.384-2.274-3.302-4.11-5.535-5.394-1.867 1.519-6.803 2.606-12.617 2.606s-10.75-1.088-12.617-2.607c-2.234 1.284-4.152 3.12-5.535 5.394-2.914 4.79-4.456 10.289-4.456 15.895v3.429c0 12.486 10.122 22.608 22.608 22.608 12.486 0 22.608-10.122 22.608-22.608v-3.429c0-5.606-1.541-11.104-4.456-15.894z" fill="#fff"/><path d="m62 65.058c-3.15 0-6.148-.646-8.872-1.809v.269c0 4.9 3.972 8.872 8.872 8.872s8.872-3.972 8.872-8.872v-.269c-2.724 1.164-5.723 1.809-8.872 1.809z" fill="#fff"/><path d="m85.938 37.353c-.49 0-.953.155-1.373.421.017.416.043.83.043 1.247v3.429c0 1.289-.114 2.552-.321 3.782.49.392 1.048.634 1.651.634 1.861 0 3.369-2.13 3.369-4.757s-1.508-4.756-3.369-4.756z" fill="#fff"/><path d="m39.392 42.45v-3.429c0-.417.026-.832.043-1.247-.42-.266-.883-.421-1.373-.421-1.861 0-3.369 2.13-3.369 4.757s1.508 4.757 3.369 4.757c.603 0 1.161-.242 1.651-.634-.208-1.231-.321-2.493-.321-3.783z" fill="#fff"/><path d="m56.708 118.243h-13.648c-.812 0-1.508-.578-1.658-1.376l-5.368-28.637h27.701l-5.369 28.637c-.15.798-.846 1.376-1.658 1.376z" fill="#0089ef"/><path d="m55.833 118.243h-11.898l-4.07-30.013h20.038z" fill="#fff"/><path d="m52.009 118.243h-4.25l-1.454-30.013h7.158z" fill="#0089ef"/><path d="m63.249 80.397c-.107 0-.212.007-.317.016-.269-1.045-.99-1.906-1.943-2.365.384-.576.609-1.268.609-2.012 0-2.006-1.627-3.633-3.633-3.633-.857 0-1.643.299-2.265.795.057-.256.09-.522.09-.795 0-2.006-1.627-3.633-3.633-3.633-1.026 0-1.951.427-2.612 1.111-.406-.153-.844-.241-1.304-.241-1.098 0-2.081.482-2.758 1.243-.576-1.246-1.833-2.113-3.296-2.113-2.006 0-3.633 1.627-3.633 3.633 0 .972.384 1.853 1.006 2.505-.575.557-.934 1.336-.934 2.2 0 .082.006.163.012.244-1.1.624-1.843 1.804-1.843 3.159 0 .672.186 1.299.503 1.839-.165-.023-.332-.039-.503-.039-2.006 0-3.633 1.627-3.633 3.633s1.627 3.633 3.633 3.633c.886 0 1.697-.318 2.328-.845.645 1.013 1.775 1.688 3.065 1.688 2 0 3.621-1.616 3.632-3.614.276 1.132 1.079 2.057 2.138 2.495.375 1.607 1.813 2.805 3.535 2.805 2.006 0 3.633-1.627 3.633-3.633 0-.31-.043-.608-.116-.895.25.055.51.085.776.085 0 2.006 1.627 3.633 3.633 3.633s3.633-1.627 3.633-3.633c0-.003-.001-.007-.001-.01.066.004.132.01.199.01 2.006 0 3.633-1.627 3.633-3.633 0-2.007-1.627-3.633-3.634-3.633z" fill="#ffd7e5"/><circle cx="39.956" cy="81.856" fill="#fa759e" r="1.318"/><path d="m43.07 83.796c-.385 0-.696.312-.696.696 0 .385.312.696.696.696s.696-.312.696-.696-.312-.696-.696-.696z" fill="#fa759e"/><path d="m44.126 103.627-2.518-.515c-3.302-.675-6.526 1.454-7.201 4.756l-.841 4.111c-.78 3.812 1.679 7.535 5.491 8.315l1.593.326c4.692.96 9.274-2.066 10.234-6.759.96-4.692-2.066-9.274-6.758-10.234z" fill="#fff"/><g fill="#3a2c60"><path d="m72.196 63.741c6.393-3.074 11.191-8.946 12.811-16.017.306.093.618.142.931.142 2.45 0 4.369-2.528 4.369-5.757 0-1.48-.407-2.809-1.08-3.819 1.497-.622 2.583-2.321 2.583-4.339 0-1.391-.515-2.681-1.366-3.542.62-1.044.954-2.247.954-3.473 0-2.617-1.469-4.941-3.747-6.077.412-1.123.621-2.294.621-3.494 0-5.643-4.59-10.233-10.232-10.233-1.684 0-3.325.412-4.8 1.197-1.554-2.116-5.328-6.127-11.595-6.127-3.719 0-6.19 1.486-8.58 2.924-2.382 1.432-4.63 2.785-8.167 2.785-3.697 0-6.95-5.183-6.982-5.235-.196-.315-.535-.49-.923-.471-.371.027-.697.258-.846.599-.17.394-3.867 9.148 1.08 16.319-2.859.802-4.962 3.432-4.962 6.544 0 1.64.6 3.212 1.653 4.435-1.049.824-1.73 2.249-1.73 3.849 0 2.021 1.088 3.717 2.588 4.333-.676 1.01-1.085 2.342-1.085 3.826 0 3.229 1.919 5.757 4.369 5.757.313 0 .625-.05.931-.142 1.62 7.07 6.418 12.943 12.811 16.016-14.656 1.994-25.99 14.584-25.99 29.779v20.172c0 1.654 1.346 3 3 3h4.326c.176.389.376.77.616 1.134 1.185 1.793 2.997 3.019 5.102 3.448l1.594.326c.651.133 1.299.197 1.939.197 2.459 0 4.777-.95 6.53-2.554h7.788c1.292 0 2.403-.922 2.641-2.191l.068-.36h5.084c.552 0 1-.447 1-1s-.448-1-1-1h-4.709l4.925-26.27c1.838-.616 3.167-2.35 3.167-4.392 0-2.424-1.872-4.419-4.246-4.617-.305-.674-.765-1.264-1.344-1.722.056-.146.086-.3.127-.45 6.319-.194 11.61-4.719 12.815-10.856 4.702 1.233 8.925 3.655 12.328 6.927-5.116 2.753-8.353 8.088-8.353 13.979v27.4h-3.543c-.553 0-1 .447-1 1s.447 1 1 1h19.52c1.654 0 3-1.346 3-3v-20.171c0-15.195-11.335-27.785-25.991-29.779zm-2.42 1.005c-.591 3.76-3.854 6.645-7.776 6.645-3.923 0-7.185-2.885-7.776-6.645.008.003.017-.002.025-.001 2.43.847 5.036 1.313 7.751 1.313 2.716 0 5.324-.467 7.755-1.315.007 0 .015.005.021.003zm-31.836 9.494c-.481-.334-.981-.646-1.503-.928.367-.353.744-.695 1.129-1.028-.001.04-.012.078-.012.118 0 .642.136 1.264.386 1.838zm13.327-6.377c-.236-.616-.421-1.259-.55-1.923.547-.102 1.101-.183 1.659-.253.174.774.442 1.511.787 2.205-.325-.073-.659-.123-1.006-.123-.303.001-.6.037-.89.094zm-1.831.805c-.046.034-.097.058-.141.094-1.232-.289-2.549-.045-3.593.628-.475-.553-1.077-.98-1.745-1.259 1.532-.722 3.139-1.308 4.806-1.746.157.79.386 1.552.673 2.283zm35.939-22.929c.15-1.076.233-2.173.233-3.289v-3.429c0-.206-.015-.411-.021-.616.001-.002.007-.005.006-.008 1.41-.36 2.714 1.494 2.714 3.712.001 2.33-1.431 4.305-2.932 3.63zm-46.75 0c-1.495.675-2.932-1.3-2.932-3.63 0-2.036 1.085-3.757 2.369-3.757.114 0 .229.016.344.046-.003.075-.003.151-.005.227h.005c-.003.132-.014.264-.014.396v3.429c0 1.097.081 2.176.227 3.234.002.018.003.037.006.055zm1.767-3.289v-3.429c0-2.346.295-4.667.84-6.927h-.001c2.685-.907 4.626-3.44 4.626-6.428 0-.071-.001-.142-.003-.212 9.217 3.432 20.276.96 25.308-.52 1.839 1.677 4.182 2.613 6.678 2.661.283 2.928 2.436 5.311 5.245 5.955.338 1.797.524 3.626.524 5.47v3.429c0 11.915-9.693 21.608-21.608 21.608s-21.609-9.692-21.609-21.607zm.121-10.153c.015-.003.03-.008.045-.011-.015.003-.03.007-.045.011zm-11.699 82.394c-.551 0-1-.448-1-1v-20.171c0-7.18 2.715-13.733 7.167-18.699.971.474 1.879 1.039 2.695 1.705-.014.097-.032.193-.039.292-1.149.869-1.842 2.235-1.842 3.694 0 .3.029.598.087.89-2.119.426-3.72 2.301-3.72 4.543 0 2.07 1.374 3.806 3.25 4.399l2.283 12.178c-2.116.87-3.777 2.743-4.268 5.148l-.84 4.111c-.199.975-.21 1.958-.054 2.912h-3.719zm12.038 4.95-1.594-.326c-1.582-.323-2.943-1.244-3.833-2.592-.89-1.347-1.202-2.961-.878-4.543l.84-4.111c.494-2.413 2.625-4.08 4.999-4.08.337 0 .68.033 1.023.104l2.518.515c4.145.848 6.827 4.91 5.979 9.055-.849 4.142-4.908 6.827-9.054 5.978zm15.856-2.398h-6.116c.595-.951 1.034-2.02 1.272-3.182 1.069-5.225-2.313-10.346-7.538-11.414l-2.518-.515c-.733-.15-1.463-.179-2.171-.104l-2.158-11.51c.5-.075.985-.226 1.433-.456.859.862 2.026 1.356 3.273 1.356 1.645 0 3.096-.867 3.918-2.168.301.296.643.552 1.017.757.643 1.847 2.375 3.098 4.37 3.098 1.86 0 3.467-1.102 4.204-2.687.845 1.138 2.199 1.877 3.722 1.877 1.012 0 1.941-.338 2.704-.892l-4.739 25.28c-.059.325-.343.56-.673.56zm6.318-35.834c.074-.008.148-.013.224-.013 1.452 0 2.633 1.181 2.633 2.633s-1.181 2.634-2.633 2.634l-.14-.009c-.276-.016-.544.086-.745.275s-.314.458-.314.733c0 1.452-1.181 2.633-2.633 2.633-1.286 0-2.355-.927-2.584-2.148.365-.133.74-.31 1.126-.548.471-.289.617-.905.328-1.376-.29-.47-.907-.618-1.375-.327-.519.319-1.25.653-1.788.451-.559-.213-.805-.962-.814-.992-.152-.527-.699-.833-1.23-.686-.532.148-.842.7-.693 1.232.045.161.46 1.481 1.682 2.143.024.143.056.288.056.427 0 1.452-1.181 2.633-2.633 2.633-1.229 0-2.282-.836-2.561-2.032-.073-.313-.293-.573-.591-.696-.772-.319-1.351-.996-1.549-1.808-.11-.453-.515-.764-.971-.764-.039 0-.078.002-.118.007-.501.059-.88.482-.883.987-.008 1.444-1.188 2.619-2.632 2.619-.885 0-1.695-.444-2.186-1.182-.164-.383-.284-.925-.204-1.139.192-.519-.072-1.094-.589-1.286-.518-.192-1.093.072-1.286.589-.241.651-.149 1.366-.003 1.915-.348.166-.726.261-1.124.261-1.452 0-2.633-1.181-2.633-2.633s1.181-2.633 2.633-2.633c.124 0 .244.012.362.029.384.054.758-.114.972-.434.213-.319.226-.732.031-1.063-.239-.406-.365-.867-.365-1.332 0-.944.512-1.821 1.337-2.289.049-.028.089-.067.132-.102.013-.01.029-.012.042-.023.089-.075.578-.42 1.451.11.162.098.34.145.517.145.338 0 .668-.172.856-.481.287-.473.136-1.088-.337-1.374-.647-.392-1.25-.551-1.786-.575.074-.105.156-.205.251-.296.394-.382.406-1.011.027-1.408-.47-.492-.729-1.137-.729-1.814 0-1.452 1.181-2.633 2.633-2.633 1.021 0 1.958.602 2.389 1.531.141.307.428.521.761.57.334.048.67-.072.894-.324.728-.819 1.913-1.128 2.961-.73.375.14.795.048 1.073-.241.501-.52 1.173-.806 1.892-.806 1.362 0 2.473 1.043 2.607 2.37-.701-.09-1.341.016-1.763.172-.518.192-.781.769-.589 1.286s.766.782 1.286.589c.056-.022 1.389-.496 2.255.99.186.318.521.496.865.496.171 0 .345-.044.503-.137.477-.278.638-.891.36-1.367-.143-.245-.298-.458-.459-.652.239-.071.487-.114.744-.114 1.452 0 2.633 1.181 2.633 2.633 0 .521-.152 1.025-.441 1.458-.161.24-.209.539-.132.818.076.279.27.512.531.638.702.337 1.215.962 1.409 1.714.118.475.559.797 1.057.746zm-.509-6.173c-.12-.682-.384-1.312-.768-1.858.084.002.166.013.251.013 4.698 0 8.632-3.301 9.624-7.703.557.07 1.111.15 1.658.252-.995 5.203-5.433 9.058-10.765 9.296zm33.67 38.455c0 .552-.448 1-1 1h-13.977v-27.4c0-5.34 3.043-10.156 7.805-12.476 4.455 4.967 7.172 11.522 7.172 18.705z"/><path d="m71.833 114.691h-3.666c-.553 0-1 .447-1 1s.447 1 1 1h3.666c.553 0 1-.447 1-1s-.447-1-1-1z"/><path d="m52.026 37.025c-1.249 0-2.261 1.012-2.261 2.261s1.012 2.261 2.261 2.261 2.261-1.012 2.261-2.261c-.001-1.249-1.013-2.261-2.261-2.261z"/><path d="m71.974 37.025c-1.249 0-2.261 1.012-2.261 2.261s1.012 2.261 2.261 2.261 2.261-1.012 2.261-2.261-1.012-2.261-2.261-2.261z"/><path d="m62 50.349c1.969 0 3.57-1.603 3.57-3.571v-1.507c0-.553-.447-1-1-1s-1 .447-1 1v1.507c0 .866-.705 1.571-1.571 1.571s-1.571-.705-1.571-1.571v-1.507c0-.553-.448-1-1-1s-1 .447-1 1v1.507c.001 1.968 1.603 3.571 3.572 3.571z"/><path d="m70.254 34.907 4.427.771c.059.01.116.015.173.015.478 0 .899-.343.984-.828.095-.544-.27-1.062-.813-1.157l-4.427-.771c-.554-.093-1.062.271-1.157.813-.095.544.269 1.062.813 1.157z"/><path d="m53.402 32.937-4.427.771c-.544.095-.908.613-.813 1.157.085.485.507.828.984.828.057 0 .115-.005.173-.015l4.427-.771c.544-.095.908-.613.813-1.157-.094-.543-.607-.905-1.157-.813z"/><path d="m67.807 53.548c.334-.44.247-1.067-.192-1.401-.441-.335-1.069-.246-1.401.192-.015.02-1.485 1.918-4.213 1.918-2.743 0-4.133-1.811-4.202-1.903-.324-.443-.946-.543-1.393-.221-.448.323-.549.948-.226 1.396.081.111 2.013 2.729 5.821 2.729 3.709-.001 5.722-2.6 5.806-2.71z"/></g></svg>