<svg id="Layer_1" enable-background="new 0 0 128 128" height="512" viewBox="0 0 128 128" width="512" xmlns="http://www.w3.org/2000/svg"><path d="m94.202 102.2c-.049-.061-.097-.118-.157-.165-2.251-2.294-4.862-4.231-7.74-5.725l2.691-.576c1.285-.275 2.354-1.067 3.037-2.119.972 1.66 2.769 2.781 4.828 2.781 3.086 0 5.596-2.51 5.596-5.596s-2.51-5.595-5.596-5.595c-2.146 0-4.011 1.215-4.949 2.992-.687-.962-1.704-1.682-2.916-1.941l-3.857-.826c2.008-2.662 3.471-5.755 4.235-9.113.315.095.634.156.956.156 2.48 0 4.424-2.567 4.424-5.845 0-.922-.158-1.784-.434-2.552 2.205-1.376 3.68-3.82 3.68-6.609 0-.278-.016-.561-.048-.847 1.737-1.475 2.758-3.653 2.758-5.943 0-4.295-3.488-7.79-7.775-7.79-1.375 0-2.707.359-3.886 1.043-.055-.025-.112-.042-.168-.066l-18.618-29.378c2.12-1.324 3.538-3.671 3.538-6.349 0-4.129-3.358-7.488-7.487-7.488s-7.488 3.359-7.488 7.488c0 2.678 1.418 5.026 3.539 6.349l-18.597 29.346c-1.129-.613-2.385-.944-3.684-.944-4.287 0-7.775 3.494-7.775 7.79 0 2.29 1.021 4.468 2.758 5.943-.032.286-.048.569-.048.847 0 2.443 1.13 4.624 2.892 6.053-.419.896-.663 1.956-.663 3.108 0 3.277 1.943 5.845 4.424 5.845.322 0 .642-.061.956-.156.764 3.358 2.227 6.451 4.235 9.113l-3.857.826c-1.275.273-2.336 1.056-3.02 2.095-.911-1.859-2.817-3.146-5.023-3.146-3.086 0-5.596 2.51-5.596 5.595s2.51 5.596 5.596 5.596c2.117 0 3.962-1.181 4.912-2.919.676 1.123 1.788 1.97 3.131 2.257l2.689.576c-9.765 5.067-16.455 15.259-16.454 26.97l-.043.976c-.012.272.088.538.276.735s.45.309.723.309h31.389c1.027 1.252 2.585 2.052 4.327 2.052s3.3-.8 4.327-2.052h31.481c.535 0 .976-.422.999-.957l.042-.976c.001-.014.001-.029.001-.043-.002-8.201-3.268-15.648-8.561-21.125z" fill="#e6e7e8"/><path d="m86.223 64.257c-.455 0-.9-.047-1.33-.133.056.561.085 1.126.085 1.694v1.157c0 1.313-.115 2.599-.326 3.852.498.399 1.065.646 1.678.646 1.891 0 3.424-2.169 3.424-4.844 0-1.129-.284-2.154-.742-2.978-.851.386-1.793.606-2.789.606z" fill="#fff"/><path d="m39.022 65.818c0-.528.031-1.054.079-1.577-.103.005-.204.016-.307.016-1.309 0-2.527-.378-3.563-1.022-.608.874-.984 2.071-.984 3.394 0 2.675 1.533 4.844 3.424 4.844.613 0 1.18-.246 1.678-.646-.211-1.253-.326-2.539-.326-3.852v-1.157z" fill="#fff"/><path d="m79.153 91.962-3.402.728 5.021 7.757c.986 1.523.774 3.527-.509 4.81-1.283 1.283-3.287 1.495-4.81.509l-7.757-5.022-1.935 9.036c-.38 1.774-1.947 3.041-3.761 3.041s-3.382-1.267-3.761-3.041l-1.935-9.036-7.757 5.022c-1.523.986-3.527.774-4.81-.509-1.283-1.283-1.495-3.287-.509-4.81l5.022-7.757-3.402-.728c-10.897 4.31-18.608 14.932-18.608 27.361l-.042.975h71.523l.042-.975c-.001-12.429-7.713-23.051-18.61-27.361z" fill="#fa759e"/><path d="m36.603 96.917c-1.731 1.474-3.29 3.141-4.641 4.974v18.394h4.641z" fill="#ffd7e5"/><path d="m43.737 105.258c-1.283-1.283-1.495-3.287-.509-4.81l2.584-3.992v-4.287l-.923-.198c-1.282.506-2.531 1.076-3.718 1.749v26.565h4.641v-13.968c-.764-.13-1.495-.479-2.075-1.059z" fill="#ffd7e5"/><path d="m50.381 104.58v15.705h4.641v-18.709z" fill="#ffd7e5"/><path d="m68.801 101.461v18.824h4.64v-15.82z" fill="#ffd7e5"/><path d="m78.01 92.207v3.974l2.762 4.267c.986 1.523.774 3.527-.509 4.81-.626.626-1.424.992-2.253 1.093v13.934h4.641v-26.667c-1.133-.632-2.325-1.166-3.544-1.646z" fill="#ffd7e5"/><path d="m87.22 96.763v23.522h4.641v-18.637c-1.356-1.8-2.915-3.439-4.641-4.885z" fill="#ffd7e5"/><path d="m84.787 83.233-5.443-1.165c-4.212 4.857-10.418 7.932-17.344 7.932-6.926 0-13.132-3.075-17.344-7.932l-5.442 1.165c-1.774.38-3.041 1.947-3.041 3.761s1.267 3.382 3.041 3.761l9.036 1.934-5.022 7.757c-.986 1.523-.774 3.527.509 4.81 1.283 1.283 3.287 1.495 4.81.509l7.757-5.022 1.935 9.036c.38 1.774 1.947 3.041 3.761 3.041s3.382-1.267 3.761-3.041l1.935-9.036 7.757 5.022c1.523.986 3.527.774 4.81-.509 1.283-1.283 1.495-3.287.509-4.81l-5.021-7.757 9.036-1.934c1.774-.38 3.041-1.947 3.041-3.761s-1.267-3.381-3.041-3.761z" fill="#0089ef"/><path d="m39.845 103.929c-2.538 0-4.596 2.058-4.596 4.596s2.057 4.596 4.596 4.596 4.596-2.058 4.596-4.596-2.058-4.596-4.596-4.596z" fill="#6dc9f7"/><path d="m92.861 82.204c-2.538 0-4.596 2.058-4.596 4.596s2.057 4.596 4.596 4.596 4.596-2.057 4.596-4.596-2.058-4.596-4.596-4.596z" fill="#6dc9f7"/><circle cx="30.962" cy="86.8" fill="#6dc9f7" r="4.596"/><circle cx="61.911" cy="117.755" fill="#6dc9f7" r="4.596"/><path d="m83.852 103.929c-2.538 0-4.596 2.058-4.596 4.596s2.057 4.596 4.596 4.596 4.596-2.058 4.596-4.596-2.058-4.596-4.596-4.596z" fill="#6dc9f7"/><path d="m84.887 64.124c-3.102-.622-5.44-3.365-5.44-6.656 0-.032.004-.063.005-.095-2.572-.963-4.407-3.439-4.408-6.352-7.878 2.6-17.353 2.591-25.085.178-.076 2.834-1.876 5.231-4.395 6.173 0 .032.005.063.005.095 0 3.645-2.869 6.611-6.467 6.774-.048.523-.08 1.049-.08 1.577v1.157c0 12.717 10.288 23.025 22.978 23.025 12.69 0 22.978-10.309 22.978-23.025v-1.157c0-.568-.036-1.132-.091-1.694z" fill="#fff"/><path d="m62 86.288c-6.6 0-10.124-4.585-10.271-4.78-.996-1.324-.729-3.205.594-4.201 1.325-.995 3.204-.73 4.201.594.055.067 1.942 2.387 5.476 2.387 3.549 0 5.414-2.31 5.491-2.408 1.018-1.286 2.892-1.537 4.194-.538 1.301.998 1.573 2.839.594 4.154-.145.196-3.645 4.792-10.279 4.792z" fill="#fa759e"/><ellipse cx="62.064" cy="71.59" fill="#fff" rx="4.679" ry="4.689"/><ellipse cx="63.564" cy="71.59" fill="#fa759e" rx="3.179" ry="4.421"/><path d="m95.709 50.678c0-3.75-3.033-6.79-6.776-6.79-1.422 0-2.741.441-3.831 1.192-.285-.159-.587-.291-.895-.408l.574.906c-2.651 2.413-6.017 4.216-9.737 5.443.001 2.913 1.836 5.389 4.408 6.352 0 .032-.005.063-.005.095 0 3.75 3.033 6.79 6.776 6.79 3.742 0 6.776-3.04 6.776-6.79 0-.436-.045-.861-.123-1.275 1.713-1.232 2.833-3.241 2.833-5.515z" fill="#fa759e"/><path d="m49.959 51.199c-3.991-1.245-7.519-3.125-10.115-5.621l.423-.667c-.117.057-.239.106-.353.169-1.09-.75-2.409-1.192-3.831-1.192-3.742 0-6.776 3.04-6.776 6.79 0 2.275 1.12 4.283 2.834 5.515-.078.413-.123.839-.123 1.275 0 3.75 3.034 6.79 6.776 6.79s6.776-3.04 6.776-6.79c0-.032-.004-.063-.005-.095 2.518-.943 4.318-3.34 4.394-6.174z" fill="#fa759e"/><path d="m64.842 14.113c-.777.329-1.632.512-2.529.512s-1.752-.182-2.529-.512l-19.939 31.465c9.999 9.619 33.775 10.162 44.936 0z" fill="#6dc9f7"/><g fill="#fa759e"><path d="m51.127 31.897c2.337 0 4.231-1.894 4.231-4.231 0-1.483-.766-2.783-1.92-3.538l-4.519 7.131c.644.397 1.396.638 2.208.638z"/><path d="m70.711 25.833c.492 0 .957-.1 1.397-.255l-4.403-6.949c-.756.764-1.224 1.813-1.224 2.973 0 2.337 1.894 4.231 4.23 4.231z"/><path d="m66.481 31.426c-2.337 0-4.231 1.894-4.231 4.231s1.894 4.231 4.231 4.231c2.336 0 4.23-1.894 4.23-4.231s-1.894-4.231-4.23-4.231z"/><path d="m77.672 49.494c0-2.336-1.894-4.231-4.231-4.231s-4.231 1.894-4.231 4.231c0 1.059.403 2.015 1.046 2.758 2.575-.487 5.06-1.217 7.359-2.195.025-.186.057-.37.057-.563z"/><path d="m47.723 44.434c-2.231 0-4.039 1.733-4.2 3.923 2.172 1.312 4.659 2.357 7.342 3.117.669-.748 1.088-1.726 1.088-2.809 0-2.337-1.894-4.231-4.23-4.231z"/><path d="m62.313 1.649c-3.583 0-6.488 2.905-6.488 6.488s2.905 6.488 6.488 6.488 6.488-2.905 6.488-6.488-2.905-6.488-6.488-6.488z"/></g><path d="m94.807 106.419c-.504.226-.73.817-.505 1.321.57 1.276 1.049 2.604 1.423 3.945.123.442.524.732.962.732.089 0 .18-.012.27-.037.531-.148.843-.7.694-1.231-.399-1.437-.912-2.858-1.522-4.225-.225-.503-.814-.731-1.322-.505z" fill="#3a2c60"/><path d="m98.545 115.671c-.066-.548-.551-.941-1.112-.874-.548.065-.939.563-.874 1.111.134 1.112.201 2.249.203 3.377h-15.254v-5.687c.714.331 1.506.521 2.344.521 3.086 0 5.596-2.51 5.596-5.596 0-2.609-1.797-4.8-4.217-5.417 1.121-1.233 2.462-2.268 3.986-3.051.975 1.056 1.887 2.183 2.705 3.397.31.458.932.579 1.388.27.458-.309.579-.93.271-1.388-1.015-1.505-2.163-2.888-3.401-4.166-.039-.045-.075-.088-.12-.125-2.28-2.326-4.897-4.258-7.755-5.735l2.692-.576c1.285-.275 2.353-1.067 3.036-2.119.972 1.66 2.769 2.78 4.828 2.78 3.086 0 5.596-2.51 5.596-5.595s-2.51-5.596-5.596-5.596c-2.146 0-4.01 1.215-4.949 2.992-.686-.962-1.704-1.682-2.915-1.941l-3.858-.826c2.006-2.66 3.468-5.751 4.233-9.105.315.097.636.148.958.148 2.481 0 4.425-2.567 4.425-5.844 0-.923-.163-1.782-.441-2.549 2.208-1.376 3.685-3.821 3.685-6.612 0-.278-.016-.561-.048-.847 1.737-1.474 2.759-3.653 2.759-5.943 0-4.295-3.488-7.79-7.775-7.79-1.375 0-2.706.359-3.887 1.044-.054-.025-.111-.041-.165-.064l-18.62-29.378c2.12-1.324 3.538-3.671 3.538-6.349 0-4.129-3.359-7.488-7.488-7.488s-7.487 3.359-7.487 7.488c0 2.678 1.418 5.026 3.537 6.349l-18.596 29.345c-1.13-.613-2.386-.944-3.684-.944-4.287 0-7.775 3.494-7.775 7.79 0 2.29 1.021 4.468 2.758 5.943-.032.286-.048.569-.048.847 0 2.443 1.131 4.625 2.893 6.054-.42.895-.665 1.955-.665 3.107 0 3.277 1.943 5.844 4.424 5.844.323 0 .644-.051.959-.148.765 3.355 2.227 6.445 4.233 9.105l-3.858.826c-1.275.273-2.336 1.055-3.019 2.094-.911-1.859-2.817-3.145-5.023-3.145-3.086 0-5.596 2.51-5.596 5.596s2.51 5.595 5.596 5.595c2.116 0 3.961-1.181 4.912-2.918.676 1.122 1.788 1.969 3.13 2.257l2.716.581c-2.885 1.495-5.499 3.434-7.754 5.732-.036.03-.064.066-.096.102-5.331 5.48-8.631 12.944-8.631 21.175v.962c0 .552.447 1 1 1h31.336c1.027 1.259 2.589 2.065 4.337 2.065s3.31-.806 4.337-2.065h31.514c.553 0 1-.448 1-1v-.962c-.001-1.222-.074-2.451-.218-3.654zm-5.684-32.466c1.982 0 3.596 1.613 3.596 3.596 0 1.982-1.613 3.595-3.596 3.595s-3.596-1.613-3.596-3.595c0-1.984 1.613-3.596 3.596-3.596zm-61.899 7.19c-1.982 0-3.596-1.613-3.596-3.595 0-1.983 1.613-3.596 3.596-3.596s3.596 1.613 3.596 3.596-1.613 3.595-3.596 3.595zm56.486 18.129c0 1.983-1.613 3.596-3.596 3.596s-3.596-1.613-3.596-3.596 1.613-3.596 3.596-3.596 3.596 1.613 3.596 3.596zm.278-9.958c-2.006 1.134-3.71 2.676-5.042 4.488-.117.025-.231.057-.345.089.139-1.106-.091-2.257-.726-3.238l-4.233-6.54 1.65-.353c3.203 1.299 6.149 3.177 8.696 5.554zm1.028-31.938c0 2.392-1.475 4.412-3.015 3.708.003-.021.004-.042.007-.063.066-.481.117-.966.154-1.455.008-.097.016-.194.022-.292.033-.514.055-1.03.055-1.552v-1.157c0-.191-.02-.383-.027-.575.091.003.18.013.272.013.784 0 1.541-.119 2.255-.337.171.523.277 1.1.277 1.71zm5.955-15.95c0 1.856-.904 3.615-2.418 4.703-.315.227-.471.616-.398.998.07.371.105.737.105 1.088 0 3.192-2.591 5.79-5.775 5.79s-5.775-2.597-5.771-5.854c.013-.428-.248-.817-.649-.967-2.025-.758-3.441-2.601-3.705-4.712 3.573-1.277 6.796-3.076 9.356-5.407.135-.123.215-.279.267-.443.954-.642 2.063-.985 3.213-.985 3.185-.001 5.775 2.596 5.775 5.789zm-37.883-42.541c0-3.026 2.462-5.488 5.487-5.488 3.026 0 5.488 2.462 5.488 5.488s-2.462 5.488-5.488 5.488-5.487-2.462-5.487-5.488zm5.487 7.488c.733 0 1.439-.11 2.109-.307l19.056 30.071c-10.526 8.794-32.342 8.802-42.341.019l19.067-30.09c.67.197 1.376.307 2.109.307zm-29.295 41.842c0-.352.035-.718.105-1.088.072-.382-.083-.771-.398-.998-1.514-1.089-2.417-2.848-2.417-4.704 0-3.192 2.591-5.79 5.775-5.79.979 0 1.923.259 2.773.729.01.251.104.497.296.681 2.586 2.487 5.958 4.369 9.74 5.66-.336 2.013-1.727 3.749-3.678 4.478-.391.146-.645.614-.645 1.031 0 3.192-2.591 5.79-5.776 5.79-3.184.001-5.775-2.596-5.775-5.789zm5.243 12.87c-1.532.697-3.015-1.314-3.015-3.708 0-.752.158-1.445.407-2.041.746.332 1.552.551 2.398.632-.008.2-.029.4-.029.599v1.157c0 .522.023 1.038.055 1.552.006.098.015.195.022.293.037.489.088.974.154 1.454.004.02.005.041.008.062zm1.762-4.519c0-.225.027-.448.038-.673 3.474-.575 6.182-3.465 6.478-7.101 2.211-1.057 3.778-3.115 4.26-5.49 3.566.996 7.425 1.495 11.299 1.495 4.123 0 8.258-.572 12.076-1.701.431 2.458 2.026 4.601 4.295 5.69.237 3.251 2.475 5.952 5.481 6.875.017.301.028.602.028.904v1.157c0 12.146-9.859 22.026-21.978 22.026s-21.978-9.88-21.978-22.025v-1.157zm-2.851 21.177c0-1.333.946-2.504 2.25-2.783l4.88-1.045c4.388 4.81 10.697 7.833 17.698 7.833s13.31-3.023 17.698-7.834l4.88 1.045c1.304.279 2.25 1.45 2.25 2.783 0 1.334-.946 2.504-2.25 2.783l-9.036 1.935c-.322.069-.589.292-.715.595s-.095.65.084.926l5.021 7.757c.725 1.12.566 2.617-.376 3.56-.942.942-2.439 1.102-3.561.377l-7.758-5.021c-.275-.178-.621-.209-.926-.084-.304.126-.526.393-.595.714l-1.934 9.036c-.279 1.304-1.45 2.25-2.784 2.25s-2.505-.946-2.784-2.25l-1.935-9.036c-.068-.321-.291-.588-.595-.714-.123-.051-.253-.076-.383-.076-.19 0-.379.054-.543.161l-7.758 5.021c-1.118.726-2.617.565-3.56-.377-.942-.943-1.101-2.44-.376-3.56l5.021-7.757c.179-.276.21-.623.084-.926s-.393-.526-.715-.595l-9.036-1.935c-1.299-.279-2.246-1.449-2.246-2.783zm2.673 17.934c1.982 0 3.596 1.613 3.596 3.596s-1.613 3.596-3.596 3.596-3.596-1.613-3.596-3.596 1.614-3.596 3.596-3.596zm6.776-11.564-4.233 6.54c-.655 1.012-.874 2.203-.706 3.34-.094-.033-.188-.064-.284-.092-1.337-1.852-3.058-3.43-5.091-4.589 2.51-2.34 5.436-4.237 8.663-5.553zm-11.801 6.69c1.486.772 2.799 1.784 3.901 2.987-2.549.522-4.472 2.782-4.472 5.482 0 3.085 2.51 5.596 5.596 5.596.957 0 1.858-.242 2.646-.667v5.833h-15.252c.009-7.423 2.895-14.171 7.581-19.231zm9.672 19.231v-6.643c0-.317-.025-.629-.045-.942.625-.903.994-1.997.994-3.176 0-.448-.059-.882-.159-1.301 1.272.316 2.657.129 3.808-.617l6.54-4.233 1.631 7.618c.257 1.197.958 2.211 1.904 2.894-1.699.962-2.849 2.783-2.849 4.87 0 .531.079 1.043.218 1.53zm17.419 2.065c-1.982 0-3.596-1.613-3.596-3.596s1.613-3.596 3.596-3.596 3.596 1.613 3.596 3.596-1.613 3.596-3.596 3.596zm2.848-8.404c.985-.685 1.717-1.725 1.98-2.956l1.631-7.618 6.539 4.233c1.056.684 2.308.89 3.49.678-.091.399-.143.813-.143 1.24 0 1.346.478 2.582 1.273 3.549-.007.19-.021.379-.021.57v6.643h-12.219c.139-.487.218-.999.218-1.53 0-2.046-1.106-3.833-2.748-4.809z" fill="#3a2c60"/><path d="m51.829 66.073c1.269 0 2.298-1.031 2.298-2.302 0-1.272-1.029-2.303-2.298-2.303s-2.298 1.031-2.298 2.303c0 1.271 1.029 2.302 2.298 2.302z" fill="#3a2c60"/><path d="m72.299 66.073c1.269 0 2.298-1.031 2.298-2.302 0-1.272-1.029-2.303-2.298-2.303s-2.298 1.031-2.298 2.303c0 1.271 1.029 2.302 2.298 2.302z" fill="#3a2c60"/><path d="m60.333 77.015c.16.046.32.091.462.121.41.096.837.145 1.269.145 3.13 0 5.676-2.555 5.676-5.695 0-.624-.098-1.229-.287-1.785-.321-.988-.916-1.871-1.718-2.551-1.02-.87-2.323-1.349-3.671-1.349-3.13 0-5.676 2.55-5.676 5.685 0 2.474 1.57 4.651 3.945 5.429zm1.731-9.114c.885 0 1.705.301 2.374.872.521.442.906 1.012 1.116 1.66.123.361.186.75.186 1.154 0 2.317-2.194 4.138-4.506 3.599-.117-.025-.234-.06-.314-.082-1.514-.497-2.531-1.911-2.531-3.518-.001-2.032 1.648-3.685 3.675-3.685z" fill="#3a2c60"/><path d="m53.328 80.305c.122.163 3.06 3.982 8.672 3.982 5.642 0 8.554-3.823 8.675-3.986.329-.441.238-1.064-.202-1.395-.441-.331-1.066-.241-1.399.197-.099.13-2.467 3.184-7.073 3.184-4.584 0-6.977-3.058-7.074-3.185-.331-.44-.956-.53-1.4-.198-.442.333-.531.96-.199 1.401z" fill="#3a2c60"/></svg>